# xmcd
#
# Track frame offsets:
#	150
#	51012
#	147155
#	184714
#	216517
#	255271
#
# Disc length: 3917 seconds
#
# Revision: 0
# Processed by: cddbd v1.5.2PL0 Copyright (c) Steve Scherf et al.
# Submitted via: audiograbber 1.83.01
#
DISCID=520f4b06
DTITLE=Grateful Dead - 94-10-14 Madison Square Garden, New York NY
DYEAR=1900
DGENRE=
TTITLE0=Scarlet Begonias
TTITLE1=Fire On The Mountain
TTITLE2=Looks Like Rain
TTITLE3=Samba In The Rain
TTITLE4=Corinna
TTITLE5=Jam
EXTD=
EXTT0=
EXTT1=
EXTT2=
EXTT3=
EXTT4=
EXTT5=
PLAYORDER=
